<svg width="84" height="93" viewBox="0 0 84 93" fill="none" xmlns="http://www.w3.org/2000/svg">
<path id="Vector" fill-rule="evenodd" clip-rule="evenodd" d="M23.6495 21.1081C23.6495 15.7207 25.5744 10.5539 29.0006 6.74435C32.4269 2.93484 37.074 0.794678 41.9195 0.794678C46.7649 0.794678 51.412 2.93484 54.8383 6.74435C58.2645 10.5539 60.1894 15.7207 60.1894 21.1081C60.1894 26.4956 58.2645 31.6624 54.8383 35.4719C51.412 39.2814 46.7649 41.4216 41.9195 41.4216C37.074 41.4216 32.4269 39.2814 29.0006 35.4719C25.5744 31.6624 23.6495 26.4956 23.6495 21.1081ZM23.6495 51.5783C17.5926 51.5783 11.7839 54.2535 7.501 59.0154C3.21815 63.7773 0.812073 70.2358 0.812073 76.9702C0.812073 81.0108 2.25572 84.8859 4.82543 87.743C7.39514 90.6002 10.8804 92.2053 14.5145 92.2053H69.3244C72.9585 92.2053 76.4438 90.6002 79.0135 87.743C81.5832 84.8859 83.0268 81.0108 83.0268 76.9702C83.0268 70.2358 80.6208 63.7773 76.3379 59.0154C72.0551 54.2535 66.2463 51.5783 60.1894 51.5783H23.6495Z" fill="#706C6C"/>
</svg>
